<svg width="20" height="20" viewBox="0 0 20 20" fill="none" xmlns="http://www.w3.org/2000/svg">
<path d="M5.3125 15.4688C4.01809 15.4688 2.96875 14.4195 2.96875 13.125V8.4375C2.96875 5.49122 2.96875 4.01809 3.88404 3.10279C4.79934 2.1875 6.27247 2.1875 9.21875 2.1875H12.3438C13.6382 2.1875 14.6875 3.23684 14.6875 4.53125" stroke="#D9D9D9"/>
<path d="M5.3125 9.21875C5.3125 7.00904 5.3125 5.90419 5.99897 5.21772C6.68544 4.53125 7.79029 4.53125 10 4.53125H12.3438C14.5534 4.53125 15.6583 4.53125 16.3448 5.21772C17.0312 5.90419 17.0312 7.00904 17.0312 9.21875V13.125C17.0312 15.3347 17.0312 16.4395 16.3448 17.126C15.6583 17.8125 14.5534 17.8125 12.3438 17.8125H10C7.79029 17.8125 6.68544 17.8125 5.99897 17.126C5.3125 16.4395 5.3125 15.3347 5.3125 13.125V9.21875Z" stroke="#94969B"/>
</svg>
