<svg width="20" height="20" viewBox="0 0 20 20" fill="none" xmlns="http://www.w3.org/2000/svg">
<path d="M9.21875 10C9.21875 10.2072 9.30106 10.4059 9.44757 10.5524C9.59409 10.6989 9.7928 10.7812 10 10.7812C10.2072 10.7812 10.4059 10.6989 10.5524 10.5524C10.6989 10.4059 10.7812 10.2072 10.7812 10C10.7812 9.7928 10.6989 9.59409 10.5524 9.44757C10.4059 9.30106 10.2072 9.21875 10 9.21875C9.7928 9.21875 9.59409 9.30106 9.44757 9.44757C9.30106 9.59409 9.21875 9.7928 9.21875 10Z" stroke="#85878D" stroke-linecap="round" stroke-linejoin="round"/>
<path d="M9.21875 15.4688C9.21875 15.676 9.30106 15.8747 9.44757 16.0212C9.59409 16.1677 9.7928 16.25 10 16.25C10.2072 16.25 10.4059 16.1677 10.5524 16.0212C10.6989 15.8747 10.7812 15.676 10.7812 15.4688C10.7812 15.2615 10.6989 15.0628 10.5524 14.9163C10.4059 14.7698 10.2072 14.6875 10 14.6875C9.7928 14.6875 9.59409 14.7698 9.44757 14.9163C9.30106 15.0628 9.21875 15.2615 9.21875 15.4688Z" stroke="#85878D" stroke-linecap="round" stroke-linejoin="round"/>
<path d="M9.21875 4.53125C9.21875 4.73845 9.30106 4.93716 9.44757 5.08368C9.59409 5.23019 9.7928 5.3125 10 5.3125C10.2072 5.3125 10.4059 5.23019 10.5524 5.08368C10.6989 4.93716 10.7812 4.73845 10.7812 4.53125C10.7812 4.32405 10.6989 4.12534 10.5524 3.97882C10.4059 3.83231 10.2072 3.75 10 3.75C9.7928 3.75 9.59409 3.83231 9.44757 3.97882C9.30106 4.12534 9.21875 4.32405 9.21875 4.53125Z" stroke="#85878D" stroke-linecap="round" stroke-linejoin="round"/>
</svg>
