<svg width="16" height="18" viewBox="0 0 16 18" fill="none" xmlns="http://www.w3.org/2000/svg">
<path d="M1.33301 16.5H14.6663M2.72134 9.9892C2.36602 10.3453 2.16643 10.8278 2.16634 11.3309V14H4.85217C5.35551 14 5.83801 13.8 6.19384 13.4434L14.1105 5.52254C14.4657 5.16637 14.6652 4.68388 14.6652 4.18087C14.6652 3.67786 14.4657 3.19537 14.1105 2.8392L13.3288 2.05587C13.1526 1.8795 12.9432 1.7396 12.7129 1.64418C12.4825 1.54875 12.2355 1.49968 11.9862 1.49976C11.7368 1.49983 11.4899 1.54906 11.2596 1.64463C11.0292 1.74019 10.82 1.88022 10.6438 2.0567L2.72134 9.9892Z" stroke="black" stroke-width="1.25" stroke-linecap="round" stroke-linejoin="round"/>
</svg>
