<svg width="23" height="21" viewBox="0 0 23 21" fill="none" xmlns="http://www.w3.org/2000/svg">
<path d="M21.7882 0.554932C22.0382 0.554932 22.2618 0.649646 22.4588 0.839076C22.6406 1.02093 22.7316 1.24067 22.7316 1.49829V19.5017C22.7316 19.7593 22.6406 19.979 22.4588 20.1609C22.2618 20.3503 22.0382 20.445 21.7882 20.445H6.62625C6.3762 20.445 6.15267 20.3503 5.95567 20.1609C5.77381 19.979 5.68289 19.7593 5.68289 19.5017V16.1829H0.943359C0.693312 16.1829 0.469785 16.0919 0.272779 15.9101C0.0909262 15.7131 0 15.4896 0 15.2395V5.76046C0 5.51041 0.0909262 5.28688 0.272779 5.08988C0.469785 4.90802 0.693312 4.8171 0.943359 4.8171H5.68289V1.49829C5.68289 1.24067 5.77381 1.02093 5.95567 0.839076C6.15267 0.649646 6.3762 0.554932 6.62625 0.554932M5.68289 11.7048L7.02405 14.228H9.05852L6.81946 10.5682L9.01306 6.96523H7.06951L5.83064 9.24975L5.78518 9.31794L5.75108 9.3975C5.55408 8.99591 5.34191 8.59053 5.1146 8.18137C4.92517 7.77978 4.72437 7.3744 4.51221 6.96523H2.45501L4.60314 10.5909L2.27315 14.228H4.29626M13.5025 19.0243V16.1829H7.10361V19.0243M13.5025 14.7621V11.216H11.3658V14.7621M13.5025 9.79531V6.23782H11.3658V9.79531M13.5025 4.8171V1.97565H7.10361V4.8171M21.3108 19.0243V16.1829H14.9233V19.0243M21.3108 14.7621V11.216H14.9233V14.7621M21.3108 9.79531V6.23782H14.9233V9.79531M21.3108 4.8171V1.97565H14.9233V4.8171H21.3108Z" fill="white"/>
</svg>
