<svg width="22" height="17" viewBox="0 0 22 17" fill="none" xmlns="http://www.w3.org/2000/svg">
<path d="M1 11.0001C1 11.591 1.1164 12.1762 1.34254 12.7221C1.56869 13.2681 1.90016 13.7642 2.31802 14.182C3.16193 15.026 4.30653 15.5001 5.5 15.5001H17.5C18.386 15.5017 19.2396 15.1672 19.8886 14.5642C20.5377 13.9611 20.9339 13.1344 20.9973 12.2507C21.0608 11.367 20.7867 10.4921 20.2304 9.80256C19.6742 9.11299 18.8771 8.66004 18 8.53507C18.0098 6.83383 17.3996 5.18727 16.2837 3.90316C15.1677 2.61906 13.6223 1.78531 11.9363 1.55778C10.2503 1.33025 8.5392 1.7245 7.12277 2.66684C5.70633 3.60918 4.68156 5.03511 4.24 6.67807C3.30495 6.95079 2.48363 7.51953 1.8994 8.29887C1.31517 9.0782 0.999568 10.0261 1 11.0001Z" stroke="#FF0404" stroke-width="1.5" stroke-linejoin="round"/>
<path d="M9 7.5L13 11.5M9 11.5L13 7.5" stroke="#FF0404" stroke-width="1.5" stroke-linecap="round" stroke-linejoin="round"/>
</svg>
