<svg width="24" height="25" viewBox="0 0 24 25" fill="none" xmlns="http://www.w3.org/2000/svg">
<g clip-path="url(#clip0_70_11901)">
<path opacity="0.3" d="M19 12.5H17.5V12C17.5 8.96 15.04 6.5 12 6.5C9.48 6.5 7.37 8.19 6.71 10.5H6C3.79 10.5 2 12.29 2 14.5C2 16.71 3.79 18.5 6 18.5H19C20.66 18.5 22 17.16 22 15.5C22 13.84 20.66 12.5 19 12.5Z" fill="#2764E7"/>
<path d="M19.35 10.54C19.0141 8.83772 18.0976 7.30486 16.7571 6.20325C15.4165 5.10163 13.7351 4.49961 12 4.5C9.11 4.5 6.6 6.14 5.35 8.54C3.88023 8.69883 2.52101 9.39521 1.53349 10.4953C0.545971 11.5954 -0.000171702 13.0217 4.04928e-08 14.5C4.04928e-08 17.81 2.69 20.5 6 20.5H19C21.76 20.5 24 18.26 24 15.5C24 12.86 21.95 10.72 19.35 10.54ZM19 18.5H6C3.79 18.5 2 16.71 2 14.5C2 12.29 3.79 10.5 6 10.5H6.71C7.37 8.19 9.48 6.5 12 6.5C15.04 6.5 17.5 8.96 17.5 12V12.5H19C20.66 12.5 22 13.84 22 15.5C22 17.16 20.66 18.5 19 18.5Z" fill="black"/>
</g>
<defs>
<clipPath id="clip0_70_11901">
<rect width="24" height="24" fill="white" transform="translate(0 0.5)"/>
</clipPath>
</defs>
</svg>
