<svg width="20" height="20" viewBox="0 0 20 20" fill="none" xmlns="http://www.w3.org/2000/svg">
<path d="M13.9105 0.460799C14.4741 0.135607 15.1175 -0.0250287 15.7678 -0.00286293C16.4181 0.0193028 17.0491 0.223382 17.5892 0.586194C18.1293 0.949006 18.5569 1.45601 18.8233 2.04962C19.0897 2.64323 19.1843 3.29965 19.0963 3.94433C19.0084 4.589 18.7414 5.19609 18.3257 5.69665C17.91 6.1972 17.3623 6.57115 16.7447 6.77603C16.1272 6.9809 15.4646 7.00849 14.8321 6.85565C14.1997 6.70282 13.6228 6.37569 13.1669 5.91142L7.70499 9.06508C7.79022 9.37413 7.83226 9.68491 7.8311 9.99743C7.8311 10.3088 7.79022 10.6228 7.70499 10.9298L13.1669 14.0834C13.7608 13.4812 14.5537 13.1158 15.3974 13.0555C16.2411 12.9953 17.0779 13.2443 17.7513 13.7561C18.4248 14.2679 18.8888 15.0075 19.0567 15.8365C19.2246 16.6655 19.0849 17.5273 18.6636 18.2608C18.241 18.9955 17.5647 19.5507 16.7616 19.8221C15.9586 20.0934 15.0841 20.0622 14.3025 19.7344C13.5208 19.4066 12.8857 18.8046 12.5165 18.0416C12.1472 17.2787 12.0693 16.4071 12.2972 15.5907L6.83525 12.4362C6.35103 12.9293 5.73097 13.2671 5.05408 13.4065C4.37718 13.546 3.6741 13.4808 3.0344 13.2192C2.39471 12.9576 1.84736 12.5115 1.4621 11.9378C1.07683 11.364 0.871094 10.6885 0.871094 9.99743C0.871094 9.30633 1.07683 8.63086 1.4621 8.0571C1.84736 7.48334 2.39471 7.03726 3.0344 6.77569C3.6741 6.51412 4.37718 6.4489 5.05408 6.58835C5.73097 6.72779 6.35103 7.06559 6.83525 7.5587L12.2972 4.40504C12.0908 3.66177 12.1372 2.87097 12.4293 2.15699C12.7213 1.443 13.2424 0.846332 13.9105 0.460799ZM17.1564 2.60469C17.043 2.40527 16.8913 2.23025 16.71 2.08969C16.5287 1.94914 16.3214 1.84584 16.1 1.78573C15.8786 1.72563 15.6475 1.70991 15.42 1.73948C15.1925 1.76905 14.9732 1.84332 14.7745 1.95802C14.5758 2.07273 14.4018 2.22559 14.2625 2.40782C14.1231 2.59005 14.0212 2.79804 13.9626 3.01982C13.9039 3.24161 13.8897 3.47279 13.9208 3.70008C13.9519 3.92737 14.0276 4.14626 14.1436 4.34416C14.3759 4.74042 14.7555 5.02872 15.1996 5.14612C15.6437 5.26353 16.1162 5.20052 16.514 4.97085C16.9118 4.74118 17.2026 4.36348 17.3229 3.92019C17.4433 3.4769 17.3834 3.004 17.1564 2.60469ZM2.67357 10.4558C2.74408 10.7123 2.87241 10.9492 3.04873 11.1484C3.22505 11.3476 3.44466 11.5037 3.69071 11.6048C3.93676 11.7059 4.20271 11.7493 4.46813 11.7317C4.73356 11.714 4.99141 11.6358 5.22189 11.5029C5.50328 11.3403 5.73348 11.1021 5.88638 10.8153C6.03928 10.5285 6.10878 10.2046 6.08699 9.88031C6.0652 9.55604 5.95299 9.24435 5.76309 8.98059C5.57319 8.71683 5.31319 8.51155 5.01257 8.38802C4.71196 8.26449 4.38274 8.22765 4.06225 8.28168C3.74177 8.33571 3.44283 8.47845 3.19933 8.69371C2.95583 8.90898 2.77751 9.18816 2.68458 9.4996C2.59165 9.81104 2.58784 10.1423 2.67357 10.4558ZM16.5197 15.0149C16.3218 14.8989 16.1029 14.8232 15.8757 14.7921C15.6484 14.761 15.4172 14.7752 15.1954 14.8339C14.9736 14.8925 14.7656 14.9944 14.5834 15.1338C14.4012 15.2731 14.2483 15.4471 14.1336 15.6458C14.0189 15.8445 13.9446 16.0638 13.9151 16.2913C13.8855 16.5188 13.9012 16.7499 13.9613 16.9713C14.0214 17.1927 14.1247 17.4 14.2653 17.5813C14.4058 17.7626 14.5808 17.9143 14.7803 18.0277C15.1796 18.2547 15.6525 18.3146 16.0958 18.1942C16.5391 18.0739 16.9168 17.7831 17.1464 17.3853C17.3761 16.9875 17.4391 16.515 17.3217 16.0709C17.2043 15.6269 16.916 15.2472 16.5197 15.0149Z" fill="black"/>
</svg>
