<svg width="20" height="20" viewBox="0 0 20 20" fill="none" xmlns="http://www.w3.org/2000/svg">
<path d="M6.24967 7.27492H13.7497V6.44159H6.24967V7.27492ZM6.24967 10.4166H10.5447C10.6941 10.2544 10.8547 10.103 11.0263 9.96242C11.198 9.82186 11.3819 9.69547 11.578 9.58325H6.24967V10.4166ZM6.24967 13.5583H8.75967C8.78745 13.4049 8.82356 13.2616 8.86801 13.1283C8.91245 12.9949 8.95801 12.8602 9.00467 12.7241H6.24967V13.5583ZM4.67967 16.6666C4.30634 16.6666 3.98856 16.5355 3.72634 16.2733C3.46412 16.011 3.33301 15.6935 3.33301 15.3208V4.67909C3.33301 4.30686 3.46412 3.98936 3.72634 3.72659C3.98856 3.46436 4.30634 3.33325 4.67967 3.33325H15.3205C15.6927 3.33325 16.0102 3.46436 16.273 3.72659C16.5352 3.98881 16.6663 4.30659 16.6663 4.67992V8.82825C16.5308 8.78159 16.3936 8.74408 16.2547 8.71575C16.1158 8.68742 15.9752 8.66464 15.833 8.64742V4.67992C15.833 4.55159 15.7797 4.43381 15.673 4.32659C15.5663 4.21936 15.4486 4.16603 15.3197 4.16659H4.67967C4.55134 4.16659 4.43356 4.21992 4.32634 4.32659C4.21912 4.43325 4.16579 4.55103 4.16634 4.67992V15.3208C4.16634 15.4485 4.21967 15.566 4.32634 15.6733C4.43301 15.7805 4.55051 15.8338 4.67884 15.8333H8.64717C8.66384 15.9755 8.68662 16.116 8.71551 16.2549C8.74329 16.3938 8.78079 16.531 8.82801 16.6666H4.67967ZM14.9997 18.9099C14.1141 18.9099 13.3275 18.6421 12.6397 18.1066C11.9519 17.571 11.4897 16.8988 11.253 16.0899H12.0322C12.255 16.7116 12.6305 17.2144 13.1588 17.5983C13.6872 17.9816 14.3008 18.1733 14.9997 18.1733C15.8802 18.1733 16.6291 17.8644 17.2463 17.2466C17.8641 16.6294 18.173 15.8805 18.173 14.9999C18.173 14.1194 17.8641 13.3705 17.2463 12.7533C16.6286 12.136 15.8797 11.8271 14.9997 11.8266C14.4902 11.8266 14.003 11.9505 13.538 12.1983C13.0736 12.4455 12.6719 12.7705 12.333 13.1733H13.9097V13.9099H11.0897V11.0899H11.8263V12.6299C12.223 12.1727 12.698 11.8016 13.2513 11.5166C13.8047 11.2321 14.3875 11.0899 14.9997 11.0899C16.0775 11.0899 16.9986 11.4721 17.763 12.2366C18.5275 13.001 18.9097 13.9221 18.9097 14.9999C18.9097 16.0777 18.5275 16.9988 17.763 17.7633C16.9986 18.5277 16.0775 18.9099 14.9997 18.9099Z" fill="black"/>
</svg>
