<svg width="14" height="14" viewBox="0 0 14 14" fill="none" xmlns="http://www.w3.org/2000/svg">
<path d="M0.878333 13.1216V12.2883H3.45833L2.58 11.4199C1.93278 10.7916 1.46611 10.1024 1.18 9.35244C0.893333 8.60244 0.75 7.843 0.75 7.07411C0.75 5.73522 1.13167 4.52383 1.895 3.43994C2.65833 2.35605 3.66556 1.58216 4.91667 1.11827V2.00327C3.90556 2.42827 3.09722 3.10161 2.49167 4.02328C1.88611 4.94494 1.58333 5.96161 1.58333 7.07328C1.58333 7.75216 1.71222 8.4105 1.97 9.04827C2.22722 9.68716 2.62722 10.278 3.17 10.8208L4.01917 11.6699V9.14744H4.8525V13.1224L0.878333 13.1216ZM9.08333 12.8816V11.9966C10.0944 11.5716 10.9028 10.8983 11.5083 9.97661C12.1139 9.05494 12.4167 8.03827 12.4167 6.92661C12.4167 6.24772 12.2881 5.58939 12.0308 4.95161C11.7731 4.31272 11.3731 3.72216 10.8308 3.17994L9.98083 2.32994V4.85244H9.1475V0.877441H13.1225V1.71077H10.5417L11.42 2.57994C12.0578 3.21772 12.5222 3.90939 12.8133 4.65494C13.1044 5.39994 13.25 6.15716 13.25 6.92661C13.25 8.2655 12.8683 9.47661 12.105 10.5599C11.3417 11.6433 10.3344 12.4172 9.08333 12.8816Z" fill="black"/>
</svg>
