<svg width="20" height="20" viewBox="0 0 20 20" fill="none" xmlns="http://www.w3.org/2000/svg">
<path d="M14.4004 7.73345C14.5108 7.61497 14.5709 7.45827 14.568 7.29635C14.5651 7.13443 14.4996 6.97994 14.385 6.86543C14.2705 6.75092 14.116 6.68533 13.9541 6.68247C13.7922 6.67961 13.6355 6.73972 13.517 6.85012L8.54203 11.8251L6.48369 9.76678C6.36521 9.65638 6.20851 9.59628 6.04659 9.59914C5.88467 9.60199 5.73019 9.66759 5.61568 9.7821C5.50116 9.89661 5.43557 10.0511 5.43271 10.213C5.42986 10.3749 5.48996 10.5316 5.60036 10.6501L8.10036 13.1501C8.21755 13.2672 8.3764 13.3329 8.54203 13.3329C8.70765 13.3329 8.86651 13.2672 8.98369 13.1501L14.4004 7.73345Z" fill="#808080"/>
<path d="M3.12533 1.66675H16.8753C17.6803 1.66675 18.3337 2.32008 18.3337 3.12508V16.8751C18.3337 17.2619 18.18 17.6328 17.9065 17.9063C17.633 18.1798 17.2621 18.3334 16.8753 18.3334H3.12533C2.73855 18.3334 2.36762 18.1798 2.09413 17.9063C1.82064 17.6328 1.66699 17.2619 1.66699 16.8751V3.12508C1.66699 2.32008 2.32033 1.66675 3.12533 1.66675ZM2.91699 3.12508V16.8751C2.91699 16.9901 3.01033 17.0834 3.12533 17.0834H16.8753C16.9306 17.0834 16.9836 17.0615 17.0226 17.0224C17.0617 16.9833 17.0837 16.9303 17.0837 16.8751V3.12508C17.0837 3.06983 17.0617 3.01684 17.0226 2.97777C16.9836 2.9387 16.9306 2.91675 16.8753 2.91675H3.12533C3.07007 2.91675 3.01708 2.9387 2.97801 2.97777C2.93894 3.01684 2.91699 3.06983 2.91699 3.12508Z" fill="black"/>
</svg>
