<svg width="20" height="20" viewBox="0 0 20 20" fill="none" xmlns="http://www.w3.org/2000/svg">
<path d="M5.53571 15.4688C3.68655 15.4688 2.1875 13.9873 2.1875 12.1599C2.1875 10.3325 3.68655 8.85109 5.53571 8.85109C5.75768 8.85109 5.97461 8.87242 6.1845 8.9132M6.1845 8.9132C6.00552 8.43578 5.90773 7.91943 5.90773 7.38052C5.90773 4.94396 7.90647 2.96875 10.372 2.96875C12.6687 2.96875 14.5602 4.68259 14.8087 6.8867M6.1845 8.9132C6.62546 8.99875 7.03538 9.16984 7.39584 9.40828M14.8087 6.8867C14.351 6.73022 13.8597 6.64522 13.3482 6.64522C12.8264 6.64522 12.3255 6.73368 11.8602 6.89626M14.8087 6.8867C16.557 7.48456 17.8125 9.12586 17.8125 11.057C17.8125 13.1718 16.3067 14.9391 14.2969 15.3689" stroke="#737373" stroke-linecap="round"/>
<path d="M10 13.125V17.8125M10 13.125L11.5625 14.6875M10 13.125L8.4375 14.6875" stroke="black" stroke-linecap="round" stroke-linejoin="round"/>
</svg>
