<svg width="16" height="16" viewBox="0 0 16 16" fill="none" xmlns="http://www.w3.org/2000/svg">
<path fill-rule="evenodd" clip-rule="evenodd" d="M7.14807 2.1337C7.22201 1.86764 7.06621 1.59203 6.80014 1.51812C6.53409 1.44422 6.25849 1.59999 6.18458 1.86606L5.17519 5.49988H2.66634C2.3902 5.49988 2.16634 5.72374 2.16634 5.99988C2.16634 6.27602 2.3902 6.49988 2.66634 6.49988H4.89741L3.87889 10.1665H1.33301C1.05687 10.1665 0.833008 10.3904 0.833008 10.6665C0.833008 10.9427 1.05687 11.1665 1.33301 11.1665H3.60111L2.85125 13.8661C2.77734 14.1321 2.93311 14.4077 3.19919 14.4817C3.46525 14.5555 3.74086 14.3998 3.81477 14.1337L4.63897 11.1665H9.60114L8.85127 13.8661C8.77734 14.1321 8.93314 14.4077 9.19921 14.4817C9.46527 14.5555 9.74087 14.3998 9.81474 14.1337L10.639 11.1665H13.333C13.6091 11.1665 13.833 10.9427 13.833 10.6665C13.833 10.3904 13.6091 10.1665 13.333 10.1665H10.9167L11.9353 6.49988H14.6663C14.9425 6.49988 15.1663 6.27602 15.1663 5.99988C15.1663 5.72374 14.9425 5.49988 14.6663 5.49988H12.2131L13.1481 2.1337C13.222 1.86764 13.0662 1.59203 12.8001 1.51812C12.5341 1.44422 12.2585 1.59999 12.1846 1.86606L11.1752 5.49988H6.21305L7.14807 2.1337ZM9.87887 10.1665L10.8974 6.49988H5.93527L4.91675 10.1665H9.87887Z" fill="black"/>
</svg>
